<?xml version="1.0" encoding="UTF-8"?>
<svg version="1.1" xmlns="http://www.w3.org/2000/svg" width="50" height="50">
<path d="M0 0 C5.56340585 3.36669624 9.53349183 8.25193794 11.5 14.4375 C12.30594257 22.2813829 12.59671889 30.02934467 7.5 36.4375 C3.04186776 41.14917531 -1.20497019 44.21012367 -7.83984375 44.66796875 C-9.02707031 44.65378906 -10.21429687 44.63960937 -11.4375 44.625 C-12.62214844 44.61855469 -13.80679687 44.61210938 -15.02734375 44.60546875 C-18.5 44.4375 -18.5 44.4375 -21.60546875 43.8984375 C-24.54624276 43.43013611 -26.92941672 43.51675339 -29.875 43.875 C-31.18597656 44.02775391 -31.18597656 44.02775391 -32.5234375 44.18359375 C-33.17570312 44.26738281 -33.82796875 44.35117187 -34.5 44.4375 C-34.41621094 43.53386719 -34.33242188 42.63023438 -34.24609375 41.69921875 C-34.14425781 40.51972656 -34.04242188 39.34023438 -33.9375 38.125 C-33.83308594 36.95324219 -33.72867188 35.78148437 -33.62109375 34.57421875 C-33.31422566 31.40717425 -33.31422566 31.40717425 -34.5 28.4375 C-35.11294618 20.52948949 -35.64496833 12.90631982 -30.5 6.4375 C-22.61946581 -1.89121623 -10.86307786 -4.89573915 0 0 Z M-27.875 9 C-32.46223221 14.50713172 -31.91170476 20.56660496 -31.5 27.4375 C-31.12875 28.51 -30.7575 29.5825 -30.375 30.6875 C-29.08193558 34.75141676 -30.24934784 37.40762081 -31.5 41.4375 C-30.65695313 41.35371094 -29.81390625 41.26992188 -28.9453125 41.18359375 C-27.30175781 41.03083984 -27.30175781 41.03083984 -25.625 40.875 C-23.98917969 40.71837891 -23.98917969 40.71837891 -22.3203125 40.55859375 C-19.5 40.4375 -19.5 40.4375 -17.5 41.4375 C-10.51113969 42.19014649 -4.89739777 42.11240417 0.8828125 37.8671875 C5.00043807 34.22696779 8.12315171 30.21427684 8.87109375 24.703125 C9.02837039 17.56091541 8.31541981 12.85484728 3.5 7.4375 C-1.06972137 2.86777863 -4.80336924 1.28043907 -11.25 1.125 C-18.88252795 1.21695817 -22.7522394 3.29730424 -27.875 9 Z " fill="#FFFFFF" transform="translate(36.5,3.5625)"/>
<path d="M0 0 C0.94875 0.04125 1.8975 0.0825 2.875 0.125 C5.95192308 5.41730769 5.95192308 5.41730769 5.5625 9 C5.335625 9.70125 5.10875 10.4025 4.875 11.125 C7.35 13.105 7.35 13.105 9.875 15.125 C10.865 14.465 11.855 13.805 12.875 13.125 C16.33918389 13.47141839 17.92429881 14.15786587 20.875 16.125 C21.25 19.125 21.25 19.125 20.875 22.125 C17.11964866 24.62856756 14.21761847 24.72425022 9.875 24.125 C3.75594364 22.39165514 -0.15355241 18.64992447 -3.83984375 13.578125 C-5.8111973 9.81517658 -6.11103871 6.25240098 -5.125 2.125 C-3.125 0.125 -3.125 0.125 0 0 Z M-0.125 2.125 C-2.405721 3.99924716 -2.405721 3.99924716 -2.5 7 C-2.04991816 10.75068199 -0.99898748 11.78988517 1.875 14.125 C1.92922947 12.6879191 1.96789723 11.25024538 2 9.8125 C2.02320313 9.01199219 2.04640625 8.21148437 2.0703125 7.38671875 C2.03317322 4.84111424 2.03317322 4.84111424 -0.125 2.125 Z M13.875 16.125 C13.545 16.785 13.215 17.445 12.875 18.125 C10.895 18.125 8.915 18.125 6.875 18.125 C7.205 18.785 7.535 19.445 7.875 20.125 C10.00076782 20.59151207 10.00076782 20.59151207 12.4375 20.75 C13.26378906 20.82476562 14.09007812 20.89953125 14.94140625 20.9765625 C15.57949219 21.02554688 16.21757813 21.07453125 16.875 21.125 C16.875 19.805 16.875 18.485 16.875 17.125 C15.885 16.795 14.895 16.465 13.875 16.125 Z " fill="#FFFFFF" transform="translate(17.125,12.875)"/>
</svg>
